HIERARCHY
ROOT pelvis
{
  OFFSET 0 100 0
  CHANNELS 6 Xposition Yposition Zposition Zrotation Xrotation Yrotation
  JOINT pelvis_right_femur
  {
    OFFSET -10.78128 -3.44521 -0.5502486
    CHANNELS 3 Zrotation Xrotation Yrotation
    JOINT right_femur_tibia
    {
      OFFSET -0.8047443 -44.0398 -0.1307829
      CHANNELS 3 Zrotation Xrotation Yrotation
      JOINT right_tibia_foot
      {
        OFFSET 3.006224 -47.83518 -5
        CHANNELS 3 Zrotation Xrotation Yrotation
        End Site
        {
          OFFSET 0 -5 15
        }
      }
    }
  }
  JOINT pelvis_left_femur
  {
    OFFSET 10.78128 -3.44521 -0.5502486
    CHANNELS 3 Zrotation Xrotation Yrotation
    JOINT left_femur_tibia
    {
      OFFSET 0.8047443 -44.0398 -0.1307829
      CHANNELS 3 Zrotation Xrotation Yrotation
      JOINT left_tibia_foot
      {
        OFFSET -4.370144 -48.10324 -4.275266
        CHANNELS 3 Zrotation Xrotation Yrotation
        End Site
        {
          OFFSET 0 -5 15
        }
      }
    }
  }
  JOINT pelvis_spine1
  {
    OFFSET 0 6.468898 -3.129235
    CHANNELS 3 Zrotation Xrotation Yrotation
    JOINT spine1
    {
      OFFSET 0 23.15396 4.99043
      CHANNELS 3 Zrotation Xrotation Yrotation
      JOINT spine2
      {
        OFFSET 0 20.79997 -5.064912
        CHANNELS 3 Zrotation Xrotation Yrotation
        JOINT neck
        {
          OFFSET 0 14.38658 9.616178
          CHANNELS 3 Zrotation Xrotation Yrotation
          End Site
          {
            OFFSET 0 20 0
          }
        }
      }
      JOINT right_manubrium
      {
        OFFSET -5.722621 16.35077 3.967754
        CHANNELS 3 Zrotation Xrotation Yrotation
        JOINT right_clavicle
        {
          OFFSET -13.16364 1.694482 -4.693211
          CHANNELS 3 Zrotation Xrotation Yrotation
          JOINT right_humerus
          {
            OFFSET -28.5034 -0.3100689 -2.792744
            CHANNELS 3 Zrotation Xrotation Yrotation
            JOINT right_radius
            {
              OFFSET -25.15693 0.02248979 -1.271978
              CHANNELS 3 Zrotation Xrotation Yrotation
              End Site
              {
                OFFSET -15 0 0
              }
            }
          }
        }
      }
      JOINT left_manubrium
      {
        OFFSET 5.722621 16.35077 3.967754
        CHANNELS 3 Zrotation Xrotation Yrotation
        JOINT left_clavicle
        {
          OFFSET 13.16364 1.694482 -4.693211
          CHANNELS 3 Zrotation Xrotation Yrotation
          JOINT left_humerus
          {
            OFFSET 29.39168 -1.063119 -2.237045
            CHANNELS 3 Zrotation Xrotation Yrotation
            JOINT left_radius
            {
              OFFSET 24.59957 -0.9528479 0.9047498
              CHANNELS 3 Zrotation Xrotation Yrotation
              End Site
              {
                OFFSET 15 -0 -0
              }
            }
          }
        }
      }
    }
  }
}
MOTION
Frames: 11
Frame Time: 0.0416666666667
14.87999 104.5676 221.6416 0.5031882 -6.265394 -2.668298 1.449191 11.91767 5.810645 9.280888e-09 35.90147 -2.461579e-09 -0.743747 -10.43966 -2.692092 -2.216694 -17.807 -8.837159 6.938809e-09 23.18833 -1.989472e-08 -4.136925 -8.912864 20.22036 -2.014709 -0.4090279 7.047986 -0.4745828 9.397757 -3.766023 1.892631 22.23307 5.938275 2.262589 -18.02951 7.71198 3.094887 -20.26732 11.445 80.76849 27.13352 -6.758647 9.798265e-10 1.178436e-09 22.11336 -22.82598 12.66118 13.05818 4.41507 -15.85536 -1.27822 -93.85207 22.04981 24.77596 -9.510138e-10 9.99127e-11 -6.592683 -0.3480286 10.19738 12.75439
15.53584 105.0431 227.3577 0.7349546 -6.834314 -2.550448 0.7300168 10.25201 6.13422 9.026607e-09 40.90577 -3.207589e-09 0.5566283 -8.848603 -3.61779 -2.948384 -15.10045 -9.220564 7.47394e-09 22.95542 -1.585864e-08 -4.926178 -9.993822 20.10825 -2.356774 -0.1018363 6.622019 -0.6396446 9.033776 -3.764881 2.085021 22.53855 6.097838 2.172025 -17.40563 8.09605 3.324224 -19.13863 11.18435 81.35139 27.16771 -7.239335 9.494681e-10 9.992798e-10 21.2113 -23.35569 12.78327 13.0203 4.469857 -15.39815 -1.210282 -92.9619 22.78095 22.68274 -9.210864e-10 1.447693e-10 -6.733884 -0.9847895 9.53019 13.3906
16.1741 105.7301 233.1987 1.011924 -7.286894 -2.183707 0.02098926 7.07666 6.312287 8.31088e-09 46.37927 -3.971343e-09 1.796636 -6.873912 -4.706429 -3.933978 -10.93574 -9.945678 8.03872e-09 21.83393 -9.807431e-09 -5.491327 -11.65513 19.95501 -2.774493 0.1686218 5.994276 -0.7345504 8.647835 -3.92691 2.268604 22.90246 6.336519 2.108069 -16.91393 8.572999 3.609889 -17.84978 10.89766 82.40579 27.35676 -8.288071 8.74101e-10 6.901448e-10 19.90919 -23.66735 12.84241 12.81479 4.639271 -15.14614 -1.204698 -91.94216 23.6291 20.07878 -8.037816e-10 2.274606e-10 -7.363581 -1.428369 9.040291 13.8392
16.7934 106.5648 239.0374 1.244326 -7.375284 -1.609464 -0.4202517 2.860444 6.241259 7.006055e-09 50.28429 -4.308203e-09 2.564566 -5.061442 -5.627486 -4.85761 -6.134319 -10.78889 8.450841e-09 20.11611 -3.221935e-09 -5.623348 -13.44824 19.67751 -3.129006 0.3092336 5.281384 -0.6891464 8.307867 -4.245688 2.374917 23.10813 6.57133 2.084898 -16.68242 8.97148 3.873206 -16.6471 10.61675 83.29232 27.65364 -9.658229 7.523102e-10 3.151228e-10 18.36985 -23.42045 12.77495 12.33904 4.87846 -15.17753 -1.259914 -90.58528 24.37751 17.43686 -6.130077e-10 3.213979e-10 -8.456645 -1.498812 8.879698 13.87052
17.38229 107.4408 244.7804 1.3735 -7.126478 -0.8994125 -0.4908986 -2.027887 5.877636 4.935792e-09 51.80951 -3.932852e-09 2.63845 -3.545161 -6.251084 -5.563381 -1.182898 -11.59464 8.47387e-09 18.41459 3.154906e-09 -5.31229 -15.13233 19.28672 -3.342831 0.2927254 4.563618 -0.4988837 8.120382 -4.71599 2.391123 23.17279 6.770325 2.122257 -16.77251 9.23174 4.035371 -15.70976 10.41436 84.23574 27.94493 -11.3837 5.73888e-10 -7.153336e-11 16.70833 -22.7196 12.61377 11.66818 5.189681 -15.63228 -1.422104 -89.20654 24.81859 15.06677 -3.694941e-10 3.931778e-10 -10.03148 -1.07829 9.139931 13.36723
17.93577 108.2393 250.3382 1.368154 -6.579044 -0.1386092 -0.2211477 -6.894517 5.262125 2.449283e-09 50.66006 -3.031844e-09 1.923374 -2.469734 -6.42619 -5.961294 3.213537 -12.28136 8.115794e-09 16.73811 8.538808e-09 -4.524636 -16.4691 18.84991 -3.384838 0.1049171 3.929688 -0.1942527 8.119956 -5.263318 2.310524 23.05566 6.893791 2.216868 -17.15973 9.296088 4.032056 -15.19469 10.3108 85.01263 28.11274 -13.16574 3.622636e-10 -4.188428e-10 15.15414 -21.65727 12.33795 10.90582 5.529511 -16.45629 -1.690663 -87.90951 24.84089 13.32422 -9.858338e-11 4.315591e-10 -11.83975 -0.1546073 9.809279 12.30644
18.42835 108.8738 255.6391 1.215181 -5.782436 0.593975 0.350984 -11.69975 4.486013 -1.476841e-10 46.93467 -1.945526e-09 0.5581432 -1.817148 -6.222836 -6.069685 7.076955 -12.79631 7.137381e-09 15.53819 1.282139e-08 -3.434436 -17.39914 18.27878 -3.250906 -0.2145335 3.373118 0.2146771 8.256405 -5.868254 2.151359 22.73121 6.927611 2.345021 -17.73755 9.164946 3.8833 -14.95792 10.27127 85.43212 28.16128 -14.95144 1.169157e-10 -7.115105e-10 13.61502 -20.24613 11.97022 10.0212 5.868604 -17.55699 -2.032437 -86.44819 24.4952 12.00403 1.773694e-10 4.223187e-10 -13.86069 1.184716 10.73055 10.76185
18.82999 109.3183 260.7326 0.9646613 -5.024654 1.249407 1.109583 -16.13702 3.68503 -2.529644e-09 41.79526 -9.747768e-10 -1.096263 -1.395519 -5.89543 -5.970596 10.35843 -13.04982 5.281408e-09 15.67138 1.605688e-08 -2.421247 -17.94898 17.60667 -2.980356 -0.5627877 2.923039 0.6515226 8.533566 -6.489762 1.975942 22.41339 6.904823 2.488881 -18.37851 8.938902 3.629525 -14.89341 10.32666 86.12618 28.03291 -16.85411 -1.540858e-10 -9.163841e-10 12.12428 -18.94134 11.67072 9.188518 6.202031 -18.87529 -2.432253 -85.31389 23.8687 11.0001 4.100989e-10 3.486663e-10 -16.01035 2.726654 11.69628 9.008882
19.12233 109.578 265.6016 0.6513131 -4.219707 1.79436 1.935652 -20.10632 2.963574 -4.461256e-09 35.81784 -3.360856e-10 -2.838061 -1.268932 -5.448505 -5.745333 13.05578 -13.16623 3.049369e-09 16.29171 1.835785e-08 -1.451307 -18.19913 16.85716 -2.640984 -0.9250633 2.554938 1.101566 8.812472 -7.071879 1.784039 21.98605 6.826651 2.617563 -18.99511 8.628942 3.345891 -14.88498 10.38202 86.38002 27.88291 -18.52597 -4.159314e-10 -1.061414e-09 10.72678 -17.54981 11.35053 8.337042 6.477394 -20.14025 -2.801348 -84.01302 23.1417 10.19298 6.062092e-10 2.490146e-10 -18.04893 4.287953 12.5759 7.214018
19.30154 109.692 270.3167 0.354664 -3.591054 2.229516 2.699304 -23.31224 2.423687 -5.941802e-09 30.32684 5.109025e-11 -4.279115 -1.240535 -5.108726 -5.493227 15.16141 -13.10349 5.416922e-10 17.73993 1.993164e-08 -0.8227526 -18.22298 16.0926 -2.298051 -1.205539 2.278652 1.485435 9.057245 -7.55787 1.630763 21.6121 6.730325 2.711657 -19.4538 8.334754 3.092455 -14.81419 10.43609 86.56487 27.70301 -19.9613 -6.492281e-10 -1.135828e-09 9.479 -16.41978 11.13072 7.60171 6.685002 -21.21503 -3.105796 -82.84684 22.44941 9.443269 7.333996e-10 1.30289e-10 -19.8168 5.590331 13.2026 5.702902
19.38441 109.7497 275.0152 0.1541916 -3.304419 2.578556 3.281913 -25.52951 2.157604 -6.98493e-09 26.55551 3.160036e-10 -5.058788 -1.149446 -5.065575 -5.314038 16.70329 -12.85445 -2.066689e-09 20.18302 2.101662e-08 -0.7830799 -18.10886 15.386 -2.020076 -1.321123 2.096523 1.737091 9.220095 -7.899166 1.562838 21.42655 6.656055 2.756498 -19.6471 8.152296 2.942751 -14.56687 10.48163 86.95349 27.5222 -21.13809 -8.328478e-10 -1.139127e-09 8.437346 -15.8094 11.11744 7.077832 6.816967 -21.95611 -3.300338 -82.05154 21.95833 8.611894 7.68638e-10 6.991158e-12 -21.16691 6.348584 13.45174 4.805001
